<?xml version="1.0" encoding="UTF-8"?>
<svg xmlns="http://www.w3.org/2000/svg" version="1.1" viewBox="0 0 1366 768">
  <defs>
    <style>
      .cls-1 {
        fill: #2b5d79;
      }

      .cls-2 {
        fill: #e6af44;
      }

      .cls-3 {
        fill: #22819a;
      }

      .cls-4 {
        fill: #132933;
      }

      .cls-5 {
        fill: #a8d99c;
      }

      .cls-6 {
        fill: #3875c6;
      }
    </style>
  </defs>
  <!-- Generator: Adobe Illustrator 28.7.1, SVG Export Plug-In . SVG Version: 1.2.0 Build 142)  -->
  <g>
    <g id="Ebene_1">
      <path class="cls-5" d="M-501-257l44.97-2.37c0,3.9-.01,7.8-.04,11.7-.03,3.5-.52,6.63-4.97,8.03-4.89,1.54-3.49,6.73-3.29,10.01.4,6.98-1.05,14.35,3.64,21.09q-9.33-1.79-9.37-10.15c-.02-3.66.13-7.33-.09-10.99-.13-2.29-.35-4.76-1.3-6.8-2.76-5.89-8.24-6.87-13.2-2.76-5.56,4.61-6.37,11.37-8.15,17.69-.5,1.75-.9,3.56-1.08,5.36-.36,3.52-1.22,6.19-5.43,7.06-3.35.7-4.61,4.6-7.38,6.46-1.22.83-2.12,2.15-3.33,3-1.16.82-2.42,2.18-4,1.29-1.4-.79-.83-2.41-.84-3.67-.06-8.83-.12-17.66-.03-26.48.03-3.17-.92-5.93-2.75-8.37-2.85-3.81-6.84-3.55-9.17.63-1.63,2.95-2.12,6.25-2.12,9.63.01,10.66-.09,21.33.04,31.98.03,2.82-.75,4.51-3.32,5.97-5.37,3.02-10.23,6.83-14.76,11.03-.22.19-.44.39-.66.6-1.79-1.54-1.18-3.34-1.18-4.89-.03-17.46-.04-34.92-.04-52.38l1.88-.89,45.97-21.78Z"/>
      <path class="cls-5" d="M-403.09-203.07c-.14,1.48-2.91,4.41-4.06,4.3-1.8-.16-3.98-3.58-3.78-5.89.18-2.12,1.84-3.59,3.68-3.26,1.95.33,4.33,3.1,4.16,4.85Z"/>
      <path class="cls-5" d="M-388.69-186.27q.05,3.17-2.97,3.19-3.55.03-3.58-2.6c-.04-3.96.58-5.04,2.99-5.24,2.4-.2,3.5,1.24,3.56,4.65Z"/>
      <path class="cls-5" d="M-367.76-180.46c0,2.96-1.18,4-4.42,3.93-1.31-.03-3.58-2.84-3.43-4.26.15-1.64,2.47-3.68,4.08-3.59,2.79.17,3.77,1.19,3.77,3.92Z"/>
      <path class="cls-5" d="M-346.84-187.18c.07,2.77-.97,3.97-3.55,4.1-2.75.15-4.4-1.15-4.29-3.36.08-1.87,2.71-4.45,4.58-4.48,1.99-.04,3.2,1.34,3.26,3.74Z"/>
      <path class="cls-5" d="M-331.15-203.52c.08,1.33-2.35,4.51-3.63,4.75-1.38.26-4.08-2.86-4.21-4.84-.2-3.09.83-4.22,3.97-4.31,2-.08,3.73,1.9,3.87,4.4Z"/>
      <path class="cls-5" d="M-289.91-220.68c-.04,1.3.31,2.9-1.26,3.49-8.3,3.14-12.78,10.3-17.99,16.75-.95,1.18-1.9,3.34-3.64,2.72-.96-.34-1.45-2.45-1.86-3.85-5.91-20.13-30.57-31.41-50.5-23.82-12.16,4.64-21.19,12.32-24.8,25.28-.73,2.62-1.89,1.87-3.04.6-2.9-3.2-5.97-6.31-8.45-9.82-3.36-4.75-8.12-7.85-12.46-11.41-3.9-3.2-14.4-1.26-17.68,2.73-.63.77-1.26,1.64-2.08,2.13-7.25,4.28-10.65,10.67-10.19,19.4-6.82-3.52-8.42-8.29-8.38-15.02.09-16.03.14-32.05.16-48.07l8.08-.43,28,20,89,4,31-19,6.72-1.81c.02,3.07.05,6.14.06,9.21.04,8.97-.44,17.95-.69,26.92Z"/>
      <path class="cls-5" d="M-199.04-201.59c-.1.38-.32.71-.75.93-1.48.8-2.19-1.04-3.23-1.72-2.21-1.46-4.21-3.64-6.63-4.33-7.55-2.14-9.4-7.06-8.57-14.24.41-3.56.61-7.32-.56-10.9-1.3-4-3.32-7.52-7.92-7.93-3.25-.29-7.09,4.88-7.29,9.57-.21,4.99-.12,9.99-.1,14.99.02,2.2-.36,3.83-3.02,4.29-7.3,1.28-13.2,5.31-18.59,10.13-2.12,1.9-3.54,1.83-4.07-1.02-1.41-7.48-5.49-13.1-11.75-17.14-2.61-1.68-3.25-4.01-3.32-6.76-.05-2-.33-4.04-.03-5.99.89-5.86-1.71-9.1-7.24-10.41-2.31-.55-3.06-2-3.04-4.38.03-3.81.04-7.62.05-11.43l15.1-4.07,70.95,13.17h.01v45.31c.07.66.17,1.35,0,1.93Z"/>
      <g>
        <path class="cls-5" d="M289.82,98.53h-100.09c-6.16,0-8.3-5.6-2.93-7.67,18.57-7.15,43.66-16.84,45.36-17.59,3.92-1.76,6.4-13.01,7.28-15.78-.02-1-.02-1.86-1.17-2.8-3.9-3.18-3.69-4.3.52-7.7.34-.27.44-.69.65-1.05-.11-1.6.8-3.43-1.95-4.52-2.12-.83-.48-1.74-.46-2.68.02-.95-2.77-.13-4.09-.54-2.02-.62-1.59-2.86.69-3.8,1.22-.5,2.6-.86,3.9-1.3,2.54-1.39,5.1-1.39,7.64,0,2.35.26,3.36,1.66,4.78,2.64,1.93,1.31,1.32,2.4-1.91,2.4-4.45-.01-1.6,1.31-1.36,2.25,0,.01-.02.02-.06.04-1.25.53-2.42,1.19-2.9,2.14-.53,1.06-.61,2.19-.46,3.37-.23,1.04,1.17,1.4,1.97,1.92,2.29,1.5,2.37,2.86.69,4.79-1.24,1.42-3.3,2.86-2.66,4.84.88,3.36-.2,13.49,7.68,16.67,5.68,2.29,26.21,10.48,41.91,16.74,5.28,2.11,3.09,7.64-3.02,7.64Z"/>
        <path class="cls-5" d="M523.35,98.53h-96.17c-5.92,0-7.98-5.6-2.82-7.67,17.85-7.15,41.95-16.84,43.58-17.59,3.76-1.76,6.15-13.01,6.99-15.78-.02-1-.02-1.86-1.12-2.8-3.74-3.18-3.54-4.3.5-7.7.33-.27.42-.69.62-1.05-.11-1.6.77-3.43-1.87-4.52-2.04-.83-.46-1.74-.44-2.68.02-.95-2.66-.13-3.93-.54-1.95-.62-1.52-2.86.66-3.8,1.17-.5,2.5-.86,3.74-1.3,2.44-1.39,4.9-1.39,7.34,0,2.26.26,3.23,1.66,4.59,2.64,1.85,1.31,1.27,2.4-1.84,2.4-4.28-.01-1.54,1.31-1.3,2.25,0,.01-.02.02-.05.04-1.2.53-2.33,1.19-2.79,2.14-.51,1.06-.58,2.19-.45,3.37-.22,1.04,1.12,1.4,1.89,1.92,2.2,1.5,2.28,2.86.66,4.79-1.19,1.42-3.18,2.86-2.55,4.84.84,3.36-.2,13.49,7.38,16.67,5.46,2.29,25.18,10.48,40.27,16.74,5.08,2.11,2.97,7.64-2.9,7.64Z"/>
        <path class="cls-5" d="M465.9,127.31h0Z"/>
        <path class="cls-5" d="M426.15,102.48c-3.91-.01-3.44-.22-3.44,3.47,0,0,.07,24.59.12,55.83.12,54.89.21,130.33-.11,129.06-1.5-1.08-4.45-3.15-8.28-5.81-4-2.77-8.96-6.2-14.25-9.84-16.72-11.51-36.63-25.17-39.4-27.22-1.72-1.28-3.91-1.4-5.79.06-4.6,3.55-23.14,16.71-37.74,27.02-5.34,3.78-10.16,7.17-13.57,9.57-3.2,2.26-5.17,3.64-5.17,3.64l-1.8-123.64-.86-59.12c-.01-1.69-1.38-3.05-3.07-3.05-17.99.03-106.97.12-108.17,0-1.88-.18-2.85,2.95-2.61,5.05.17,1.51.02,3.05.02,4.57v299.27c.65-.6,1.31-1.2,1.97-1.78l-1.78.11c5.38-6.72,11.46-11.83,17.89-15.68,4.52-2.69,9.22-4.76,13.99-6.32,3.16-1.03,6.34-1.84,9.52-2.45,25.04-4.83,49.78,2.24,57.98,4.99,1.83.61,2.84,1.01,2.84,1.01.23-.47.46-.94.69-1.39,12.95-25.03,34.71-16.37,42.75-9.72,2.41,3.33,5.34,6.32,8.12,9.38,1.15,1.27,2.31,2.02,3.04-.6,3.61-12.96,12.64-20.64,24.8-25.28,19.93-7.59,44.59,3.69,50.5,23.82.41,1.4.9,3.51,1.86,3.85,1.74.62,17.8-34.28,52.9-4.71.3.25.31.73.46,1.1,0,0,21.74-3.69,33.44,3.33,20,12,24.9,25.38,25,25l1.96-313.52c-34.6,0-69.21.01-103.81,0ZM232.89,220.1c0,.72-.58,1.31-1.3,1.31l-12.94.08c-.73.01-1.32-.58-1.32-1.31v-36.22c0-.27.08-.53.24-.75,1.32-1.88,8-10.37,15.09.44.15.23.23.49.23.74v35.71ZM232.89,166.46c0,.72-.58,1.31-1.3,1.31l-12.94.08c-.73.01-1.32-.57-1.32-1.31v-36.22c0-.26.08-.53.24-.75,1.32-1.88,8-10.37,15.09.45.15.22.23.48.23.73v35.71ZM260.36,220.1c0,.72-.58,1.31-1.3,1.31l-12.93.08c-.74.01-1.33-.58-1.33-1.31v-36.22c0-.27.08-.53.24-.75,1.32-1.88,8.01-10.37,15.1.44.14.23.22.49.22.74v35.71ZM260.36,166.46c0,.72-.58,1.31-1.3,1.31l-12.93.08c-.74.01-1.33-.57-1.33-1.31v-36.22c0-.26.08-.53.24-.75,1.32-1.88,8.01-10.37,15.1.45.14.22.22.48.22.73v35.71ZM318.29,365.8c-.85,1.44-2.49,1.18-3.48.73-.98-.45-2.27-1.36-1.99-3.02.1-.63.13-1.32,0-1.95-.52-2.55.74-3.08,2.81-2.72,1.91.07,3.76-.51,4.33,2.4.43,2.17-.86,3.16-1.67,4.56ZM322.32,343.14c-2.76.13-4.08-.93-4.25-3.43-.02-.23-.02-.45-.02-.66-.01-2.65,1.16-3.76,3.94-3.76.78,0,1.42.09,1.95.28,1.34.47,1.93,1.57,1.97,3.49.07,2.76-.98,3.96-3.59,4.08ZM337.06,326.1c-1.11-.04-2.71.85-3.27-.92-.72-2.25.48-6.27,1.94-6.88,1.46-.64,4.25.74,4.55,2.35.16.83.03,1.72.03,2.57.01,2.93,0,2.99-3.25,2.88ZM360.87,319.18c-.84.79-2.01,1.37-3.15,1.68-1.51.41-4.4-2.84-4.33-4.65.06-1.82,2.73-4.41,4.59-4.45,2.33-.05,3.27,1.4,3.26,5.69-.04.16.11,1.28-.37,1.73ZM378.68,326.14c-1.12.07-2.01-.06-2.69-.4-1.01-.5-1.55-1.47-1.67-2.93-.17-2.14.35-3.47,1.66-4.09.57-.27,1.28-.41,2.15-.42,2.74-.05,3.93,1.02,4.03,3.65.11,2.76-.95,4.04-3.48,4.19ZM390.01,339.66c-.16-2.78.88-4.17,3.32-4.37.17-.01.33-.02.49-.02,2.73-.09,4,1.12,4.03,3.84.01.32,0,.61-.03.88-.18,2.13-1.29,3.06-3.62,3.15-2.77.11-4.04-.95-4.19-3.48ZM397,359c-2.21,0-4-1.79-4-4s1.79-4,4-4,4,1.79,4,4-1.79,4-4,4ZM470.99,220.1c0,.72-.58,1.31-1.3,1.31l-12.94.08c-.73.01-1.32-.58-1.32-1.31v-36.22c0-.27.08-.53.24-.75,1.32-1.88,8-10.37,15.09.44.15.23.23.49.23.74v35.71ZM470.99,166.46c0,.72-.58,1.31-1.3,1.31l-12.94.08c-.73.01-1.32-.57-1.32-1.31v-36.22c0-.26.08-.53.24-.75,1.32-1.88,8-10.37,15.09.45.15.22.23.48.23.73v35.71ZM498.46,220.1c0,.72-.58,1.31-1.3,1.31l-12.94.08c-.73.01-1.32-.58-1.32-1.31v-36.22c0-.27.08-.53.24-.75,1.32-1.88,8.01-10.37,15.1.44.14.23.22.49.22.74v35.71ZM498.46,166.46c0,.72-.58,1.31-1.3,1.31l-12.94.08c-.73.01-1.32-.57-1.32-1.31v-36.22c0-.26.08-.53.24-.75,1.32-1.88,8.01-10.37,15.1.45.14.22.22.48.22.73v35.71Z"/>
        <path class="cls-5" d="M297.13,94.6h0Z"/>
      </g>
      <g>
        <path class="cls-5" d="M-289.91-220.68c.25-8.97.73-17.95.69-26.92-.01-3.07-.04-6.14-.06-9.21-.15-18.36-.48-36.71-.6-55.07-.11-16.95-.02-33.9.03-50.85.01-3.94-2.54-7.14-2.4-11.35.23-6.91-1.21-13.86-1.46-20.81-.29-8.03-4.09-15.71-1.83-24.06.96-3.56-3.98-9.61-6.96-9.79-1.32-.08-2.6.5-3.67,1.52-1.73,1.65-2.92,4.48-2.96,7.6-.01.84.07,1.67.06,2.5-.05,3.66.12,7.35-.24,10.98-1.22,12.36-4.72,24.44-4.57,36.97.04,3.18-1.38,2.96-3.24,1.47-4.16-3.32-8.19-6.78-12.36-10.08-2.7-2.14-3.55-4.72-3.66-8.2-.83-24.39,2.21-48.89-1.87-73.21-1.44-8.6-3.54-17.1-2.16-26.06.62-4.01-3.37-7.98-6.46-7.44-4.1.71-6.3,3.49-6.37,7.74-.05,3.16-.06,6.33-.01,9.49.24,14.63-4.3,28.93-3.04,43.65.16,1.88,1.35,4.93-1.59,5.56-2.94.63-6.29,1.24-8.84-1.65-2.18-2.47-3.64-7.42-6.19-7.14-2.64.29-4.81,4.49-7.27,6.89-2.83,2.76-6.52,2.69-9.85,1.89-3.36-.81-1.75-4.15-2.05-6.44-.17-1.31.03-2.66-.04-3.99-.55-11.22,1.6-22.61-2.79-33.6-1.04-2.61-.5-5.89.29-8.87.78-2.92.71-5.97-.29-8.85-1.02-2.92-3.33-5.04-6.36-4.63-3.03.42-5.87,2.52-5.88,5.92-.05,14.43-1.48,28.73-2.61,43.1-1.52,19.2-.38,38.62-.36,57.94,0,2.35.09,4.66-2.12,6.31-5.33,3.98-10.6,8.02-15.9,12.03-1.73,1.31-3.37,1.55-3.04-1.26,2.02-17.35-5.74-34.05-3.26-51.46.2-1.41-.26-2.95-1.08-4.32-1.42-2.38-3.89-4.28-5.84-4.24-3.5.07-6.97,4.19-6.88,8.5.05,2.3,1.06,4.64.82,6.88-1.53,14.49-3.27,28.96-4.97,43.44-.07.63-.25,1.55-.68,1.79-2.8,1.55-2.28,4.15-2.28,6.59.01,33.95.08,67.9.03,101.85-.02,16.02-.07,32.04-.16,48.07-.04,6.73,1.56,11.5,8.38,15.02-.46-8.73,2.94-15.12,10.19-19.4.82-.49,1.45-1.36,2.08-2.13,3.28-3.99,13.78-5.93,17.68-2.73,4.34,3.56,9.1,6.66,12.46,11.41,2.48,3.51,5.55,6.62,8.45,9.82,1.15,1.27,2.31,2.02,3.04-.6,3.61-12.96,12.64-20.64,24.8-25.28,19.93-7.59,44.59,3.69,50.5,23.82.41,1.4.9,3.51,1.86,3.85,1.74.62,2.69-1.54,3.64-2.72,5.21-6.45,9.69-13.61,17.99-16.75,1.57-.59,1.22-2.19,1.26-3.49ZM-352.96-311.57c-.29,8.82-.06,17.65-.06,26.48h.04c0,4.93-.04,9.88-.04,14.81-.01,2.34-.01,4.68,0,7.02.01,2.55.05,5.09.1,7.64.08,3.98-.99,5.77-5.31,5.63-8.32-.26-16.65-.2-24.98-.01-3.74.08-4.96-1.46-4.95-5.04.1-19.65-.44-39.31.3-58.94.36-9.6,5.81-17.6,13.43-23.55,3.31-2.58,6.95-2.21,10.39.88,7.51,6.76,11.41,14.84,11.07,25.08ZM-318.72-312.43c2.14,2.54,3.48,5.4,4.16,8.46.35,1.59.52,3.23.53,4.92.1,14.99-.02,29.98.12,44.97.04,3.62-1.13,5.24-4.87,5.06-3.82-.18-7.67-.18-11.49.01-.32.02-.62.02-.91,0-2.92-.12-3.98-1.68-4-4.72v-.36c.15-7.82.05-15.65.05-23.48h.07c0-7.67-.09-15.33.04-22.99.09-5.01,1.84-9.43,5.69-12.82.18-.15.35-.3.52-.43,3.67-2.97,6.83-2.51,10.09,1.38ZM-425.14-305.29c.5-2.39,1.65-4.35,3.11-6.13,3.11-3.81,7.01-4.67,10.29-2.53,1.05.68,2.03,1.67,2.91,2.97,2.44,3.6,3.8,7.72,3.81,12.17,0,14.62-.09,29.24.04,43.86,0,.55-.02,1.06-.08,1.52-.29,2.53-1.56,3.71-4.74,3.54-.38-.02-.76-.04-1.15-.06-3.27-.15-6.56-.17-9.82.06-4.31.3-5.43-1.73-5.33-5.66.2-7.47.06-14.95.06-23.97.61-7.3-.89-16.1.73-24.86.05-.3.11-.61.17-.91Z"/>
        <path class="cls-5" d="M-456.03-259.37c0,3.9-.01,7.8-.04,11.7-.03,3.5-.52,6.63-4.97,8.03-4.89,1.54-3.49,6.73-3.29,10.01.4,6.98-1.05,14.35,3.64,21.09q-9.33-1.79-9.37-10.15c-.02-3.66.13-7.33-.09-10.99-.13-2.29-.35-4.76-1.3-6.8-2.76-5.89-8.24-6.87-13.2-2.76-5.56,4.61-6.37,11.37-8.15,17.69-.5,1.75-.9,3.56-1.08,5.36-.36,3.52-1.22,6.19-5.43,7.06-3.35.7-4.61,4.6-7.38,6.46-1.22.83-2.12,2.15-3.33,3-1.16.82-2.42,2.18-4,1.29-1.4-.79-.83-2.41-.84-3.67-.06-8.83-.12-17.66-.03-26.48.03-3.17-.92-5.93-2.75-8.37-2.85-3.81-6.84-3.55-9.17.63-1.63,2.95-2.12,6.25-2.12,9.63.01,10.66-.09,21.33.04,31.98.03,2.82-.75,4.51-3.32,5.97-5.37,3.02-10.23,6.83-14.76,11.03-.22.19-.44.39-.66.6-1.79-1.54-1.18-3.34-1.18-4.89-.03-17.46-.04-34.92-.04-52.38,0-9.19,0-18.38-.01-27.57,0-2.45.72-4.49,1.89-6.18,1.37-2,3.35-3.52,5.48-4.68,2.99-1.61,3.57-3.28,3.54-6.17-.1-9.99-.02-19.99-.04-29.98-.01-2.2-.2-4.67,1.97-5.83,7.18-3.84,7.2-10.97,8.03-17.51.59-4.59.05-9.31.07-13.98.02-4.25,3.57-8.75,6.67-8.58,2.89.16,6.26,4.72,6.26,8.59.01,3.83.28,7.7-.19,11.48-.72,5.64,2.04,10.31,3.54,15.35.14.47.36,1.12.72,1.28,11.32,5.14,7.25,15.41,7.44,23.84.11,4.87.92,9.9-.31,14.82-.44,1.77.58,3.24,2.19,4.12,2.28,1.26,3.88,3.1,4.74,6.02,3.87-4.52,8.86-5.73,13.23-8.02,7.94-4.18,15.78-8.55,23.58-12.97,2.78-1.58,4.07-1.66,4.04,2.15-.08,9.6-.02,19.19-.02,28.78Z"/>
        <path class="cls-5" d="M-199.04-201.59c-.1.38-.32.71-.75.93-1.48.8-2.19-1.04-3.23-1.72-2.21-1.46-4.21-3.64-6.63-4.33-7.55-2.14-9.4-7.06-8.57-14.24.41-3.56.61-7.32-.56-10.9-1.3-4-3.32-7.52-7.92-7.93-3.25-.29-7.09,4.88-7.29,9.57-.21,4.99-.12,9.99-.1,14.99.02,2.2-.36,3.83-3.02,4.29-7.3,1.28-13.2,5.31-18.59,10.13-2.12,1.9-3.54,1.83-4.07-1.02-1.41-7.48-5.49-13.1-11.75-17.14-2.61-1.68-3.25-4.01-3.32-6.76-.05-2-.33-4.04-.03-5.99.89-5.86-1.71-9.1-7.24-10.41-2.31-.55-3.06-2-3.04-4.38.03-3.81.04-7.62.05-11.43.03-9.85,0-19.7.01-29.54,0-1.88-.19-4.2,2.85-2.48,11.11,6.31,22.19,12.68,33.78,19.31.8-2.01,1.43-4.13,3.75-4.96,2.51-.89,2.8-2.89,2.78-5.23-.06-9.16.04-18.33-.05-27.49-.03-3.15.21-6.01,3.42-7.65.29-.15.66-.37.75-.64,2.82-8.3,7.82-16.11,5.7-25.51-.18-.81-.58-1.57-.69-2.39-.49-3.84.73-6.82,4.29-8.76,1.46-.8,2.57-2.02,4.36-.42,2.89,2.59,6.61,5.22,4.81,9.47-2.35,5.54-.73,10.36.79,15.46.71,2.37,1.36,4.85,1.44,7.31.11,3.28,1.59,5.39,4.43,6.57,2.93,1.21,3.71,3.28,3.66,6.3-.15,10,0,19.99-.11,29.99-.03,2.76.78,4.33,3.27,5.96,3.69,2.41,6.41,5.69,6.82,10.43.04.45.06.91.06,1.39-.02,2.89-.04,5.79-.06,8.69,0,1.09-.01,2.19-.01,3.29-.06,14.83-.01,29.66-.05,44.49,0,.26.03.53.06.82.07.66.17,1.35,0,1.93Z"/>
      </g>
      <g>
        <path class="cls-2" d="M370.99,564.74c-4.18,10.74-7.36,21.23-12.8,30.72-4.37,7.62-9.01,15.06-12.81,23.02-2.65,5.56-10.02,7.84-15.01,5.54-5.76-2.65-8.05-9.41-5.69-16.2,1.83-5.25,5.39-9.51,7.83-14.41,10.44-20.94,17.04-42.66,16.49-66.44-.4-16.96.09-33.9-3-50.71-1.44-7.85-5.75-14.14-10.39-20.17-12.35-16.04-23.78-32.72-35.09-49.48-2.3-3.4-3.73-7.04-1.38-11.18,2.34-4.12,5.95-4.83,10.21-4.45,2.02.18,3.37,1.29,4.68,2.59,4.37,4.36,8.14,9.23,11.74,14.21,6.47,8.96,13.68,17.37,22.8,23.53,16.28,10.98,33.01,14.49,51.12,4.55,12.19-6.69,20.84-17.24,29.34-27.89,3.4-4.26,6.61-8.7,10.19-12.8,4.93-5.63,12.06-5.77,15.9-.54,3.07,4.18,1.71,8.34-.69,12.08-8.62,13.39-16.85,27.13-27.92,38.68-14.04,14.66-18.85,32.73-20.71,52.1-3.62,37.6-5.25,75.28-4.88,113.05.05,4.74-.8,9.44-5.11,12.37-7.61,5.19-16.8-.06-17.82-9.84-1.51-14.53-3.29-29.03-4.93-43.55-.17-1.5-.4-2.96-2.07-4.79Z"/>
        <path class="cls-2" d="M402.09,409.51c.02,13.67-9.88,22.97-23.43,23.79-13.75.84-24.79-13.16-24.57-23.58.26-12.87,11.3-24.33,24.12-24.51,11.98-.17,25.36,11.66,23.88,24.3Z"/>
      </g>
      <g>
        <path class="cls-1" d="M105.94,606.82c.11-.22.17-.46.18-.71,1.18-2.3,1.85-4.71,1.75-7.31.29-9.71,4.34-18.84,4.35-28.6,1.61-5.6.37-11.44.73-17.27l-2.59,12.32c-2.16,9.37-4.31,18.74-6.64,28.84-8.06-15.73-11.5-32.04-13.16-48.88-1.66-16.88-.56-33.83-1.22-50.91-2.15.48-2.44,2.14-3.12,3.33-3.72,6.5-7.3,13.08-11.04,19.57-2.15,3.73-4.6,7.04,1.33,9.99,2.67,1.33,3.45,4.79,3.64,7.88.13,2-.52,3.81-2.78,4.04-2.12.22-3.36-.89-3.52-3.22-.16-2.44-.88-4.96-3.92-4.74-3.15.23-2.98,3.12-3.22,5.38-2.79,27-5.54,53.99-8.31,80.99-.1.99-.21,1.99-.35,2.98-.3,2.05-1.31,3.59-3.55,3.34-2.07-.23-3.28-1.7-3.13-3.83.29-4.32.68-8.63,1.13-12.94,2.33-22.52,4.68-45.04,7.08-67.55.32-3.02.17-5.12-3.41-6.42-4.04-1.47-5.62-6.33-3.55-10.58,9.67-19.9,18.1-40.44,29.76-59.31,5.57-9.01,14.3-13.78,25.05-14.13,5.82-.19,11.66.03,17.49.1,10.36.13,18.26,5.34,23.93,13.31,7.51,10.56,13.6,22.15,23.11,31.23,1.33,1.27,1.29,2.33.22,3.84-2.21,3.12-4.44,6.28-6.16,9.67-1.7,3.36-3.54,2.79-5.86,1-6.1-4.69-11.32-10.28-16.47-16.4-1.64,2.1-.91,4.3-.86,6.27.92,37.77-5.74,74.55-14.53,111.04-.54,2.26-1.35,4.46-2.13,6.65-3.03,8.52-8.54,10.71-16.76,6.7-1.14-1.17-2.28-2.34-3.41-3.51,0,0,.01.02.01.02-1.81-4.05-.72-8.12-.08-12.19Z"/>
        <path class="cls-1" d="M116.74,396.42c12.74.14,23.18,10.7,23.08,23.33-.1,12.55-10.95,23.11-23.55,22.92-12.44-.19-22.77-10.7-22.75-23.14.02-12.8,10.51-23.24,23.22-23.1Z"/>
      </g>
      <g>
        <path class="cls-6" d="M223.54,469.13c2.21-9.11,8.05-13.69,17.38-13.66,9.72.04,17.37,5.66,19.3,14.18,2.67,11.82,5.34,14.22,17.46,15.05,5.14.35,10.32.2,15.48.36,7.04.22,11.31,3.75,11.37,9.3.07,5.97-4.16,9.79-11.41,9.58-10.89-.32-22.05,1.45-32.42-3.69-1.71-.85-2.44.08-2.44,1.8,0,3.83.05,7.66-.07,11.49-.09,2.92,1.98,2.54,3.73,2.67,10.95.84,21.9,1.73,32.86,2.46,9.01.6,15.38,4.7,18.8,13.22,4.27,10.65,8.57,21.29,12.99,31.88,1.86,4.44,1.63,8.62-.13,13.04-3.02,7.55-6.38,14.93-10.65,23.13-1.7-3.69-3.07-6.54-4.34-9.44-5.76-13.08-11.11-26.34-17.54-39.12-2.08-4.14-5.02-5.73-9.51-5.74-12.15-.05-24.33-.83-36.46-.39-11.58.42-25.36-11.5-24.38-23.34,0-17.59-.02-35.19-.03-52.78Z"/>
        <path class="cls-6" d="M293.72,562.52c3.75,8.39,6.83,15.33,9.95,22.26,1.14,2.53-.13,4.49-1.38,6.48-20.26,32.3-63.05,42.89-96.05,23.29-25.11-14.92-38.16-37.41-37.13-66.65.98-27.9,15.55-48.16,39.42-61.9,8.73-5.03,8.98-4.5,9.57,5.23.45,7.46-1.06,12.17-8.18,16.85-19.32,12.68-26.42,37.98-18.82,60.81,7.09,21.3,29.16,36.85,51.65,36.39,23.24-.47,43.44-16.23,49.96-38.96.22-.77.41-1.54,1.01-3.8Z"/>
        <path class="cls-6" d="M270.54,424.68c-.13,13.23-10.1,23.3-23.01,23.26-12.54-.04-23.14-10.81-23.09-23.44.05-12.52,10.85-22.82,23.75-22.68,12.31.14,22.47,10.54,22.34,22.87Z"/>
      </g>
      <g>
        <path class="cls-3" d="M510.99,495.34c6.61,8.87,12.72,17.09,18.85,25.29,2.59,3.46,5.17,6.94,7.83,10.34,2.6,3.32,7.16,4.01,10.73,1.74,3.25-2.07,4.57-6.63,2.42-10.12-10.81-17.57-20.57-35.78-32.44-52.71-8.13-11.58-19.41-16.81-33.11-17.49-9.84-.48-19.13,2.15-28.14,5.86-2.99,1.23-5.08,3.6-7.17,6.05-7.81,9.12-12.78,20.31-21.26,28.92-1.62,1.64-.73,2.98.13,4.43,2.11,3.57,4.27,7.11,6.33,10.71,1.19,2.09,2.57,2.24,4.48.93,3.13-2.15,6-4.56,8.52-7.42,1.58-1.8,3.5-3.29,6.21-4.47-1.75,10.45-3.4,20.92-5.29,31.34-1.59,8.77-3.63,17.45-5.19,26.22-1.04,5.85.38,7.86,6.35,7.99,4.75.1,6.1,1.9,6.28,6.41.5,12.47,1.46,24.93,2.25,37.39.19,2.99.36,5.99.74,8.96.67,5.22,4.49,8.53,9.44,8.37,4.85-.16,8.24-3.31,8.61-8.59.96-13.79,1.74-27.59,2.58-41.38.14-2.33.29-4.65.38-6.98.07-1.74.1-3.28,2.53-3.42,2.55-.14,2.44,1.43,2.65,3.17,1.96,15.86,3.99,31.71,6,47.57,1.06,8.31,6.4,11.38,14.2,8.38,2.32-.89,3.38-2.22,3.8-4.63.51-2.98.67-5.93.53-8.94-.61-13.81-1.06-27.63-1.78-41.43-.18-3.42.94-4.59,4.33-4.94,14.05-1.47,14.72-2.69,10.14-16.14-5.41-15.9-8.55-32.37-12.11-48.73-.12-.56.06-1.19.16-2.66Z"/>
        <path class="cls-3" d="M456.65,423.53c.07,12.47,10.65,23.15,22.77,22.99,12.91-.17,23.14-10.44,23.14-23.25,0-12.93-10.25-23.38-22.95-23.38-13.2,0-23.04,10.14-22.97,23.64Z"/>
      </g>
      <path class="cls-5" d="M110.36,565.26l2.59-12.32c-.36,5.83.88,11.67-.73,17.27-1.16-1.45,1.67-4.39-1.86-4.95Z"/>
      <path class="cls-5" d="M105.94,606.82c-.64,4.07-1.73,8.14.08,12.19-3.11-4.04-2.6-8.11-.08-12.19Z"/>
      <path class="cls-5" d="M107.87,598.81c.11,2.6-.57,5.01-1.75,7.31.28-2.51-.8-5.34,1.75-7.31Z"/>
      <path class="cls-5" d="M106,618.99c1.14,1.17,2.27,2.34,3.41,3.51-3.03.67-3.2-1.44-3.41-3.51Z"/>
      <path class="cls-5" d="M669.62,687.06c-2.47.72-4.94.73-7.4,0,2.47-.62,4.93-.62,7.4,0Z"/>
      <path class="cls-5" d="M572.74,687.01l-.51.26s-.52-.24-.52-.24c.34-.37.68-.38,1.03-.02Z"/>
      <path class="cls-5" d="M564.86,687.18l-.41.19s-.4-.2-.4-.2c.28-.29.54-.28.81.01Z"/>
      <g>
        <path class="cls-4" d="M587.6,464.77l66.68-150.08h34.3l67.32,150.08h-36.45l-55.1-132.5h13.94l-55.1,132.5h-35.59ZM621.26,432.61l8.79-26.37h77.61l9,26.37h-95.41Z"/>
        <path class="cls-4" d="M824.94,466.49c-12.44,0-23.48-2.54-33.13-7.61-9.65-5.07-17.23-12.11-22.73-21.12-5.5-9-8.25-19.22-8.25-30.66s2.75-21.8,8.25-30.66c5.5-8.86,13.08-15.87,22.73-21.01,9.65-5.15,20.69-7.72,33.13-7.72s22.76,2.54,31.84,7.61c9.08,5.07,15.61,12.26,19.62,21.55l-25.73,14.15c-3.14-5.43-6.93-9.4-11.36-11.9-4.43-2.5-9.29-3.75-14.58-3.75-5.58,0-10.65,1.25-15.22,3.75-4.58,2.5-8.22,6.11-10.94,10.83-2.72,4.72-4.07,10.44-4.07,17.15s1.36,12.47,4.07,17.26c2.71,4.79,6.36,8.44,10.94,10.93,4.57,2.5,9.65,3.75,15.22,3.75,5.29,0,10.15-1.25,14.58-3.75,4.43-2.5,8.22-6.54,11.36-12.11l25.73,14.15c-4,9.15-10.54,16.29-19.62,21.44-9.08,5.15-19.69,7.72-31.84,7.72Z"/>
        <path class="cls-4" d="M951.64,466.49c-12.43,0-23.48-2.54-33.12-7.61-9.65-5.07-17.23-12.11-22.73-21.12-5.5-9-8.25-19.22-8.25-30.66s2.75-21.8,8.25-30.66c5.5-8.86,13.08-15.87,22.73-21.01,9.65-5.15,20.69-7.72,33.12-7.72s22.76,2.54,31.84,7.61c9.08,5.07,15.61,12.26,19.62,21.55l-25.73,14.15c-3.14-5.43-6.93-9.4-11.36-11.9-4.43-2.5-9.29-3.75-14.58-3.75-5.57,0-10.65,1.25-15.22,3.75-4.58,2.5-8.22,6.11-10.93,10.83-2.72,4.72-4.07,10.44-4.07,17.15s1.36,12.47,4.07,17.26c2.71,4.79,6.36,8.44,10.93,10.93,4.57,2.5,9.65,3.75,15.22,3.75,5.29,0,10.15-1.25,14.58-3.75,4.43-2.5,8.22-6.54,11.36-12.11l25.73,14.15c-4,9.15-10.54,16.29-19.62,21.44-9.08,5.15-19.69,7.72-31.84,7.72Z"/>
        <path class="cls-4" d="M1079.85,466.49c-13.15,0-24.66-2.57-34.52-7.72-9.86-5.15-17.51-12.18-22.94-21.12-5.43-8.93-8.15-19.11-8.15-30.55s2.61-21.65,7.82-30.66c5.22-9,12.51-16.04,21.87-21.12,9.36-5.07,19.9-7.61,31.62-7.61s21.47,2.43,30.55,7.29c9.08,4.86,16.26,11.72,21.55,20.58,5.29,8.86,7.93,19.51,7.93,31.95,0,1.29-.07,2.75-.21,4.4-.14,1.65-.29,3.18-.43,4.61h-93.69v-19.51h76.11l-13.08,5.79c.14-6-1-11.22-3.43-15.65-2.43-4.43-5.79-7.9-10.08-10.4-4.29-2.5-9.29-3.75-15.01-3.75s-10.76,1.25-15.12,3.75c-4.36,2.5-7.75,6-10.18,10.51-2.43,4.5-3.64,9.83-3.64,15.97v5.15c0,6.43,1.43,12.01,4.29,16.72,2.86,4.72,6.79,8.33,11.79,10.83,5,2.5,11.01,3.75,18.01,3.75,6,0,11.33-.93,15.97-2.79,4.64-1.86,8.9-4.64,12.76-8.36l17.79,19.3c-5.29,6-11.94,10.61-19.94,13.83-8.01,3.22-17.23,4.82-27.66,4.82Z"/>
        <path class="cls-4" d="M1196.7,466.49c-9.86,0-19.3-1.18-28.3-3.54-9-2.36-16.22-5.32-21.65-8.9l10.93-23.8c5.43,3.15,11.75,5.76,18.97,7.83,7.22,2.07,14.33,3.11,21.33,3.11,7.72,0,13.19-.93,16.4-2.79,3.22-1.85,4.82-4.43,4.82-7.72,0-2.71-1.25-4.75-3.75-6.11-2.5-1.36-5.79-2.39-9.86-3.11-4.07-.71-8.61-1.43-13.61-2.14-5-.71-9.97-1.72-14.9-3-4.93-1.29-9.51-3.11-13.72-5.47-4.22-2.36-7.58-5.61-10.08-9.75-2.5-4.14-3.75-9.5-3.75-16.08,0-7.29,2.14-13.75,6.43-19.4,4.29-5.64,10.36-10.04,18.22-13.19,7.86-3.14,17.37-4.72,28.52-4.72,8,0,16.04.89,24.12,2.68,8.07,1.79,14.9,4.25,20.48,7.4l-11.36,23.8c-5.43-3.14-10.97-5.36-16.62-6.65-5.65-1.29-11.04-1.93-16.19-1.93-7.72,0-13.29,1-16.72,3-3.43,2-5.15,4.58-5.15,7.72,0,2.86,1.29,5.04,3.86,6.54,2.57,1.5,5.93,2.61,10.08,3.32,4.14.72,8.72,1.43,13.72,2.14,5,.72,9.93,1.72,14.79,3,4.86,1.29,9.4,3.11,13.61,5.47,4.21,2.36,7.57,5.61,10.08,9.76,2.5,4.15,3.75,9.51,3.75,16.08,0,7.01-2.14,13.26-6.43,18.76-4.29,5.5-10.47,9.83-18.55,12.97-8.08,3.14-17.9,4.72-29.48,4.72Z"/>
        <path class="cls-4" d="M1310.54,466.49c-9.86,0-19.3-1.18-28.3-3.54-9-2.36-16.22-5.32-21.65-8.9l10.93-23.8c5.43,3.15,11.75,5.76,18.97,7.83,7.22,2.07,14.33,3.11,21.33,3.11,7.72,0,13.19-.93,16.4-2.79,3.22-1.85,4.82-4.43,4.82-7.72,0-2.71-1.25-4.75-3.75-6.11-2.5-1.36-5.79-2.39-9.86-3.11-4.07-.71-8.61-1.43-13.61-2.14-5-.71-9.97-1.72-14.9-3-4.93-1.29-9.51-3.11-13.72-5.47-4.22-2.36-7.58-5.61-10.08-9.75-2.5-4.14-3.75-9.5-3.75-16.08,0-7.29,2.14-13.75,6.43-19.4,4.29-5.64,10.36-10.04,18.22-13.19,7.86-3.14,17.37-4.72,28.52-4.72,8,0,16.04.89,24.12,2.68,8.07,1.79,14.9,4.25,20.48,7.4l-11.36,23.8c-5.43-3.14-10.97-5.36-16.62-6.65-5.65-1.29-11.04-1.93-16.19-1.93-7.72,0-13.29,1-16.72,3-3.43,2-5.15,4.58-5.15,7.72,0,2.86,1.29,5.04,3.86,6.54s5.93,2.61,10.08,3.32c4.14.72,8.72,1.43,13.72,2.14,5,.72,9.93,1.72,14.79,3,4.86,1.29,9.4,3.11,13.61,5.47,4.21,2.36,7.57,5.61,10.08,9.76,2.5,4.15,3.75,9.51,3.75,16.08,0,7.01-2.14,13.26-6.43,18.76-4.29,5.5-10.47,9.83-18.55,12.97-8.08,3.14-17.9,4.72-29.48,4.72Z"/>
        <path class="cls-1" d="M610.68,624.2v-129.88h11.32l59.37,101.3h-5.94l58.82-101.3h11.32v129.88h-13.17v-109.28h3.15l-54.18,92.77h-6.49l-54.55-92.77h3.53v109.28h-13.17Z"/>
        <path class="cls-1" d="M825.34,625.13c-8.29,0-15.53-1.54-21.71-4.64-6.19-3.09-10.98-7.73-14.38-13.92-3.4-6.18-5.1-13.92-5.1-23.19v-56.59h13.17v55.1c0,10.39,2.56,18.22,7.7,23.47,5.13,5.26,12.34,7.89,21.62,7.89,6.8,0,12.71-1.39,17.72-4.18,5.01-2.78,8.84-6.83,11.5-12.15,2.66-5.32,3.99-11.69,3.99-19.11v-51.02h13.17v97.41h-12.62v-26.72l2.04,4.83c-3.09,7.18-7.89,12.77-14.38,16.79-6.49,4.02-14.07,6.03-22.73,6.03ZM812.17,507.31c-2.23,0-4.11-.74-5.66-2.23-1.55-1.48-2.32-3.4-2.32-5.75s.77-4.27,2.32-5.75c1.55-1.48,3.43-2.23,5.66-2.23,2.1,0,3.96.74,5.57,2.23,1.61,1.48,2.41,3.4,2.41,5.75s-.81,4.27-2.41,5.75c-1.61,1.48-3.47,2.23-5.57,2.23ZM845.2,507.31c-2.11,0-3.96-.74-5.57-2.23-1.61-1.48-2.41-3.4-2.41-5.75s.81-4.27,2.41-5.75c1.61-1.48,3.46-2.23,5.57-2.23,2.23,0,4.11.74,5.66,2.23,1.54,1.48,2.32,3.4,2.32,5.75s-.78,4.27-2.32,5.75c-1.55,1.48-3.43,2.23-5.66,2.23Z"/>
        <path class="cls-1" d="M959.49,525.86c7.91,0,14.87,1.52,20.87,4.55,6,3.03,10.7,7.64,14.1,13.82,3.4,6.19,5.1,13.98,5.1,23.38v56.59h-13.17v-55.29c0-10.26-2.57-18.03-7.7-23.28-5.13-5.26-12.34-7.89-21.62-7.89-6.93,0-12.96,1.39-18.09,4.18-5.14,2.78-9.09,6.8-11.88,12.06-2.78,5.26-4.17,11.6-4.17,19.02v51.21h-13.17v-97.41h12.62v26.72l-2.04-5.01c3.09-7.05,8.04-12.58,14.84-16.61,6.8-4.02,14.9-6.03,24.3-6.03Z"/>
        <path class="cls-1" d="M1061.35,625.13c-8.04,0-15.65-1.14-22.82-3.43-7.18-2.29-12.8-5.16-16.88-8.63l5.94-10.39c3.96,2.97,9.03,5.54,15.21,7.7,6.18,2.17,12.68,3.25,19.48,3.25,9.28,0,15.96-1.45,20.04-4.36,4.08-2.91,6.12-6.77,6.12-11.6,0-3.59-1.15-6.4-3.43-8.44-2.29-2.04-5.29-3.59-9-4.64-3.71-1.05-7.86-1.95-12.43-2.69-4.58-.74-9.12-1.61-13.64-2.6-4.52-.99-8.63-2.44-12.34-4.36-3.71-1.92-6.71-4.55-9-7.89-2.29-3.34-3.43-7.79-3.43-13.36s1.48-10.08,4.45-14.29c2.97-4.2,7.33-7.51,13.08-9.93,5.75-2.41,12.77-3.62,21.06-3.62,6.31,0,12.62.83,18.92,2.5s11.5,3.87,15.58,6.59l-5.75,10.57c-4.33-2.97-8.97-5.1-13.92-6.4-4.95-1.3-9.9-1.95-14.84-1.95-8.78,0-15.25,1.52-19.39,4.55-4.15,3.03-6.22,6.9-6.22,11.6,0,3.71,1.14,6.62,3.43,8.72,2.29,2.1,5.32,3.74,9.09,4.92,3.77,1.18,7.91,2.13,12.43,2.88,4.51.74,9.03,1.64,13.54,2.69,4.51,1.05,8.66,2.48,12.43,4.27,3.77,1.79,6.8,4.33,9.09,7.61,2.29,3.28,3.43,7.58,3.43,12.89,0,5.69-1.58,10.61-4.73,14.75-3.16,4.15-7.73,7.36-13.73,9.65-6,2.29-13.27,3.43-21.8,3.43Z"/>
        <path class="cls-1" d="M1110.51,537.74v-10.95h60.3v10.95h-60.3ZM1156.53,625.13c-9.16,0-16.21-2.47-21.15-7.42-4.95-4.95-7.42-11.94-7.42-20.97v-91.47h13.17v90.73c0,5.69,1.45,10.08,4.36,13.17,2.91,3.09,7.08,4.64,12.52,4.64,5.81,0,10.64-1.67,14.47-5.01l4.64,9.46c-2.6,2.35-5.72,4.08-9.37,5.2-3.65,1.11-7.39,1.67-11.22,1.67Z"/>
        <path class="cls-1" d="M1242.43,625.13c-10.14,0-19.05-2.13-26.72-6.4-7.67-4.27-13.67-10.14-18-17.63-4.33-7.48-6.49-16.05-6.49-25.7s2.07-18.18,6.22-25.6c4.14-7.42,9.83-13.27,17.07-17.53,7.24-4.27,15.37-6.4,24.4-6.4s17.28,2.07,24.4,6.22c7.11,4.15,12.71,9.96,16.79,17.44,4.08,7.49,6.12,16.11,6.12,25.88,0,.62-.03,1.27-.09,1.95-.06.68-.09,1.39-.09,2.13h-84.79v-9.83h77.74l-5.2,3.9c0-7.05-1.52-13.33-4.55-18.83-3.03-5.5-7.14-9.8-12.34-12.9-5.2-3.09-11.2-4.64-18-4.64s-12.68,1.55-18,4.64c-5.32,3.09-9.46,7.42-12.43,12.99-2.97,5.57-4.45,11.94-4.45,19.11v2.04c0,7.42,1.64,13.95,4.92,19.57,3.28,5.63,7.85,10.02,13.73,13.17,5.87,3.15,12.58,4.73,20.13,4.73,5.94,0,11.47-1.05,16.61-3.15,5.13-2.1,9.56-5.32,13.27-9.65l7.42,8.53c-4.33,5.19-9.74,9.15-16.23,11.87-6.49,2.72-13.64,4.08-21.43,4.08Z"/>
        <path class="cls-1" d="M1313.12,624.2v-97.41h12.62v26.53l-1.3-4.64c2.72-7.42,7.3-13.08,13.73-16.98,6.43-3.9,14.41-5.84,23.93-5.84v12.8c-.5,0-.99-.03-1.48-.09-.5-.06-.99-.09-1.48-.09-10.27,0-18.31,3.13-24.12,9.37-5.82,6.25-8.72,15.12-8.72,26.63v49.72h-13.17Z"/>
      </g>
      <g>
        <path class="cls-2" d="M-354.21,197.92c-5.23,13.46-9.22,26.59-16.04,38.49-5.47,9.54-11.29,18.87-16.04,28.84-3.32,6.96-12.55,9.82-18.8,6.95-7.21-3.31-10.08-11.8-7.13-20.29,2.29-6.57,6.75-11.91,9.81-18.05,13.09-26.23,21.35-53.45,20.65-83.24-.5-21.25.11-42.48-3.75-63.53-1.81-9.84-7.2-17.71-13.02-25.27-15.48-20.09-29.79-40.99-43.96-62-2.88-4.26-4.67-8.82-1.73-14.01,2.93-5.16,7.46-6.05,12.8-5.58,2.53.22,4.22,1.61,5.86,3.24,5.47,5.46,10.2,11.56,14.71,17.8,8.1,11.23,17.14,21.77,28.57,29.48,20.39,13.76,41.36,18.16,64.04,5.7,15.27-8.38,26.12-21.6,36.76-34.94,4.26-5.34,8.28-10.9,12.77-16.04,6.17-7.06,15.1-7.23,19.92-.68,3.85,5.24,2.14,10.45-.87,15.13-10.79,16.78-21.11,33.99-34.98,48.46-17.59,18.36-23.61,41-25.95,65.28-4.53,47.1-6.57,94.31-6.12,141.63.06,5.94-1,11.82-6.4,15.5-9.54,6.5-21.04-.08-22.32-12.33-1.9-18.2-4.12-36.37-6.18-54.56-.21-1.88-.51-3.71-2.59-6Z"/>
        <path class="cls-2" d="M-315.24,3.44c.03,17.12-12.38,28.77-29.35,29.81-17.22,1.05-31.06-16.48-30.79-29.54.33-16.13,14.15-30.48,30.22-30.71,15.01-.21,31.78,14.61,29.91,30.44Z"/>
      </g>
      <g>
        <path class="cls-6" d="M-652.94,132.13c2.77-11.41,10.08-17.16,21.78-17.11,12.18.05,21.77,7.09,24.18,17.77,3.35,14.81,6.69,17.82,21.88,18.86,6.44.44,12.93.25,19.39.45,8.81.27,14.16,4.7,14.25,11.65.09,7.48-5.21,12.26-14.3,12-13.64-.39-27.62,1.81-40.61-4.62-2.15-1.06-3.06.1-3.06,2.26,0,4.8.06,9.6-.09,14.39-.12,3.66,2.47,3.18,4.67,3.35,13.72,1.05,27.44,2.17,41.16,3.08,11.28.75,19.28,5.88,23.55,16.57,5.34,13.35,10.73,26.68,16.28,39.94,2.33,5.57,2.05,10.8-.17,16.33-3.79,9.46-7.99,18.71-13.35,28.97-2.13-4.62-3.84-8.2-5.44-11.83-7.22-16.39-13.92-32.99-21.98-49.01-2.61-5.18-6.29-7.18-11.91-7.2-15.23-.06-30.48-1.04-45.67-.48-14.51.53-31.77-14.4-30.54-29.24-.01-22.04-.02-44.08-.03-66.12Z"/>
        <path class="cls-6" d="M-565.02,249.13c4.69,10.51,8.55,19.21,12.46,27.89,1.43,3.17-.16,5.62-1.73,8.12-25.38,40.46-79,53.73-120.34,29.17-31.46-18.69-47.8-46.87-46.52-83.5,1.23-34.96,19.48-60.33,49.39-77.55,10.94-6.3,11.26-5.63,11.99,6.55.56,9.35-1.32,15.25-10.24,21.11-24.21,15.89-33.11,47.58-23.58,76.19,8.88,26.68,36.53,46.17,64.71,45.6,29.11-.59,54.42-20.33,62.59-48.81.28-.96.52-1.93,1.27-4.76Z"/>
        <path class="cls-6" d="M-594.06,76.45c-.17,16.57-12.65,29.19-28.82,29.14-15.71-.05-28.99-13.54-28.93-29.37.06-15.68,13.59-28.6,29.76-28.41,15.42.18,28.15,13.2,27.99,28.65Z"/>
      </g>
      <g>
        <path class="cls-3" d="M-141.81,100.96c8.28,11.11,15.94,21.41,23.62,31.69,3.24,4.34,6.47,8.69,9.81,12.96,3.26,4.16,8.98,5.03,13.44,2.17,4.08-2.6,5.73-8.3,3.03-12.69-13.54-22.01-25.77-44.82-40.64-66.03-10.18-14.51-24.32-21.06-41.48-21.91-12.33-.61-23.97,2.69-35.25,7.34-3.74,1.54-6.36,4.51-8.98,7.58-9.78,11.42-16.01,25.45-26.63,36.23-2.03,2.06-.92,3.73.16,5.55,2.65,4.47,5.35,8.9,7.93,13.41,1.49,2.62,3.22,2.81,5.61,1.17,3.92-2.7,7.51-5.71,10.68-9.3,1.98-2.25,4.39-4.13,7.78-5.6-2.2,13.09-4.25,26.21-6.63,39.26-2,10.98-4.54,21.87-6.5,32.85-1.3,7.32.48,9.85,7.95,10.01,5.95.13,7.64,2.38,7.87,8.04.63,15.63,1.82,31.23,2.82,46.84.24,3.75.45,7.5.93,11.22.84,6.54,5.63,10.69,11.82,10.49,6.08-.2,10.33-4.15,10.79-10.77,1.21-17.27,2.17-34.56,3.23-51.85.18-2.92.36-5.83.48-8.75.08-2.18.12-4.11,3.18-4.28,3.19-.18,3.06,1.8,3.33,3.97,2.46,19.87,5,39.73,7.52,59.59,1.32,10.41,8.02,14.26,17.79,10.5,2.9-1.12,4.24-2.78,4.76-5.8.64-3.74.84-7.43.67-11.2-.76-17.3-1.33-34.61-2.23-51.91-.22-4.29,1.18-5.75,5.43-6.19,17.6-1.84,18.44-3.36,12.7-20.22-6.78-19.92-10.71-40.55-15.17-61.05-.15-.7.08-1.49.2-3.34Z"/>
        <path class="cls-3" d="M-209.89,11c.08,15.62,13.34,29,28.53,28.8,16.18-.21,28.99-13.08,29-29.13.01-16.2-12.85-29.3-28.75-29.29-16.54.01-28.87,12.71-28.78,29.62Z"/>
      </g>
      <path class="cls-5" d="M831,1060"/>
    </g>
  </g>
</svg>